<svg width="151" height="151" viewBox="0 0 151 151" fill="none" xmlns="http://www.w3.org/2000/svg">
<path d="M79.9075 111.706C85.0744 116.873 89.8287 119.25 94.2375 119.25C96.6019 119.25 98.4887 118.829 101.968 117.525L104.417 116.572C110.987 113.944 114.291 113 119.237 113C126.823 113 134.105 116.404 141.027 122.871L142.407 124.206L133.568 133.044C128.401 127.877 123.647 125.5 119.237 125.5C116.874 125.5 114.987 125.921 111.507 127.225L109.059 128.178C102.489 130.806 99.185 131.75 94.2375 131.75C86.6525 131.75 79.3706 128.346 72.4481 121.879L71.0681 120.544L79.9075 111.706ZM56.7378 19.25C56.7378 29.6053 65.1325 38 75.4875 38C85.8431 38 94.2375 29.6053 94.2375 19.25H131.737C135.189 19.25 137.987 22.0482 137.987 25.5V69.25C137.987 72.7019 135.189 75.5 131.737 75.5H75.4875C68.8981 75.5 63.4994 80.5994 63.0219 87.0669L62.9878 88V131.75H37.9878C34.536 131.75 31.7378 128.952 31.7378 125.5L31.7315 75.4937L19.2378 75.5C15.786 75.5 12.9878 72.7019 12.9878 69.25V25.5C12.9878 22.0482 15.786 19.25 19.2378 19.25H56.7378ZM79.9075 86.7056C85.0744 91.8731 89.8287 94.25 94.2375 94.25C96.6019 94.25 98.4887 93.8288 101.968 92.525L104.417 91.5719C110.987 88.9437 114.291 88 119.237 88C126.823 88 134.105 91.4037 141.027 97.8713L142.407 99.2056L133.568 108.044C128.401 102.877 123.647 100.5 119.237 100.5C116.874 100.5 114.987 100.921 111.507 102.225L109.059 103.178C102.489 105.806 99.185 106.75 94.2375 106.75C86.6525 106.75 79.3706 103.346 72.4481 96.8787L71.0681 95.5444L79.9075 86.7056Z" fill="white"/>
</svg>
