<svg width="26" height="26" viewBox="0 0 26 26" fill="none" xmlns="http://www.w3.org/2000/svg">
<g clip-path="url(#clip0_85_193)">
<path d="M13 6.39592C9.53625 6.39592 6.74084 9.22671 6.74084 12.7343C6.74084 16.2419 9.53625 19.0727 13 19.0727C16.4637 19.0727 19.2591 16.2419 19.2591 12.7343C19.2591 9.22671 16.4637 6.39592 13 6.39592ZM13 16.8538C10.76 16.8538 8.932 15.0026 8.932 12.7343C8.932 10.466 10.76 8.61481 13 8.61481C15.24 8.61481 17.068 10.466 17.068 12.7343C17.068 15.0026 15.24 16.8538 13 16.8538ZM19.5155 4.65912C18.7068 4.65912 18.0537 5.32046 18.0537 6.13941C18.0537 6.95837 18.7068 7.61971 19.5155 7.61971C20.3242 7.61971 20.9773 6.96146 20.9773 6.13941C20.9775 5.94495 20.9399 5.75235 20.8665 5.57264C20.7931 5.39293 20.6855 5.22965 20.5497 5.09214C20.4139 4.95464 20.2526 4.84561 20.0752 4.7713C19.8977 4.697 19.7075 4.65887 19.5155 4.65912ZM25.2009 12.7343C25.2009 11.0284 25.2162 9.33797 25.1216 7.63516C25.027 5.65731 24.5814 3.90197 23.1532 2.45567C21.7219 1.00628 19.9916 0.558175 18.0384 0.462373C16.3539 0.366571 14.6846 0.382023 13.003 0.382023C11.3185 0.382023 9.64916 0.366571 7.96764 0.462373C6.01452 0.558175 4.28112 1.00937 2.8529 2.45567C1.42162 3.90506 0.979118 5.65731 0.884514 7.63516C0.789909 9.34106 0.805168 11.0315 0.805168 12.7343C0.805168 14.4371 0.789909 16.1306 0.884514 17.8334C0.979118 19.8113 1.42467 21.5666 2.8529 23.0129C4.28417 24.4623 6.01452 24.9104 7.96764 25.0062C9.65221 25.102 11.3215 25.0866 13.003 25.0866C14.6876 25.0866 16.3569 25.102 18.0384 25.0062C19.9916 24.9104 21.725 24.4592 23.1532 23.0129C24.5845 21.5635 25.027 19.8113 25.1216 17.8334C25.2192 16.1306 25.2009 14.4402 25.2009 12.7343ZM22.5154 20.0214C22.2926 20.5839 22.024 21.0042 21.5937 21.4368C21.1634 21.8726 20.7515 22.1445 20.196 22.3701C18.5908 23.016 14.7792 22.8708 13 22.8708C11.2208 22.8708 7.40612 23.016 5.8009 22.3732C5.24548 22.1476 4.83044 21.8757 4.40319 21.4399C3.97289 21.0042 3.70434 20.587 3.48156 20.0245C2.84679 18.3959 2.99023 14.536 2.99023 12.7343C2.99023 10.9326 2.84679 7.06962 3.48156 5.44408C3.70434 4.88163 3.97289 4.46133 4.40319 4.02868C4.83349 3.59603 5.24548 3.32098 5.8009 3.09538C7.40612 2.45258 11.2208 2.59783 13 2.59783C14.7792 2.59783 18.5939 2.45258 20.1991 3.09538C20.7545 3.32098 21.1695 3.59294 21.5968 4.02868C22.0271 4.46442 22.2956 4.88163 22.5184 5.44408C23.1532 7.06962 23.0098 10.9326 23.0098 12.7343C23.0098 14.536 23.1532 18.3959 22.5154 20.0214Z" fill="white"/>
</g>
<defs>
<clipPath id="clip0_85_193">
<rect width="25" height="25" fill="white" transform="translate(0.5 0.234375)"/>
</clipPath>
</defs>
</svg>
