<svg width="52" height="52" viewBox="0 0 52 52" fill="none" xmlns="http://www.w3.org/2000/svg">
<g clip-path="url(#clip0_11_31)">
<path d="M45.5 42.4017L42.4081 45.4957L28.4505 31.538L31.5488 28.444L45.5 42.4017ZM28.4267 6.50002C22.8367 6.50002 17.2467 8.62335 12.9567 12.8917L12.935 12.9133C4.37665 21.4717 4.37665 35.36 12.935 43.9183L43.9183 12.9133C41.8855 10.8771 39.4705 9.2624 36.812 8.16184C34.1536 7.06127 31.3039 6.49652 28.4267 6.50002ZM13.3033 37.4183C11.9873 35.2148 11.1731 32.7483 10.9184 30.1944C10.6638 27.6404 10.975 25.0617 11.83 22.6417C12.2417 26.78 13.7583 30.8533 16.315 34.4283L13.3033 37.4183ZM19.4567 31.265C16.5317 26.8233 15.4267 21.515 16.4667 16.4667C17.7233 16.2067 18.98 16.0767 20.2583 16.0767C24.1583 16.0767 27.95 17.2683 31.265 19.4567L19.4567 31.265ZM22.6417 11.83C25.0617 10.975 27.6404 10.6638 30.1943 10.9185C32.7483 11.1731 35.2147 11.9874 37.4183 13.3033L34.4067 16.315C30.9454 13.8155 26.8884 12.2689 22.6417 11.83Z" fill="white"/>
</g>
<defs>
<clipPath id="clip0_11_31">
<rect width="52" height="52" fill="white"/>
</clipPath>
</defs>
</svg>
