<svg width="151" height="151" viewBox="0 0 151 151" fill="none" xmlns="http://www.w3.org/2000/svg">
<path d="M127.062 9.875C121.877 9.875 117.688 14.0732 117.688 19.25C117.688 24.4268 121.877 28.625 127.062 28.625C132.248 28.625 136.438 24.4268 136.438 19.25C136.438 14.0732 132.248 9.875 127.062 9.875ZM35.3633 22.5898C33.9863 23.3457 32.668 24.7227 31.3496 26.8145C29.2021 30.2363 27.333 35.2754 25.9092 40.9883C23.0586 52.3848 21.8867 66.3594 21.8867 75.5C21.8867 90.5293 24.0693 117.512 25.5869 132.043C28.6602 130.52 31.8184 129.377 34.8652 129.113C35.041 129.113 35.1875 129.084 35.3633 129.084V22.5898ZM40.6367 22.5898V129.26C43.8008 129.641 47.1113 130.461 50.3926 131.516C51.8281 116.896 54.1133 90.4414 54.1133 75.5C54.1133 66.3594 52.9414 52.3848 50.0996 40.9883C48.6641 35.2754 46.7891 30.2363 44.6504 26.8145C43.332 24.7227 42.0137 23.3457 40.6367 22.5898ZM94.25 68.1758C89.5625 68.1758 86.1641 71.1055 83.2344 73.4492C80.3047 75.793 77.8145 77.5508 75.5 77.5508C73.1855 77.5508 70.6953 75.793 67.7656 73.4492C65.3633 71.5449 62.668 69.2305 59.2109 68.4395C59.2988 70.4316 59.3574 72.3359 59.3867 74.0938C60.9395 74.8262 62.6387 76.0566 64.4844 77.5508C67.4141 79.8945 70.8125 82.8242 75.5 82.8242C80.1875 82.8242 83.5859 79.8945 86.5156 77.5508C89.4453 75.207 91.9355 73.4492 94.25 73.4492C96.5645 73.4492 99.0547 75.207 101.984 77.5508C104.914 79.8945 108.312 82.8242 113 82.8242C117.688 82.8242 121.086 79.8945 124.016 77.5508C126.945 75.207 129.436 73.4492 131.75 73.4492C134.064 73.4492 138.723 75.5 142.355 77.7559C143.41 78.4004 144.377 79.0156 145.227 79.6016V73.3027C145.197 73.2734 145.168 73.2734 145.139 73.2441C141.154 70.8125 136.438 68.1758 131.75 68.1758C127.062 68.1758 123.664 71.1055 120.734 73.4492C117.805 75.793 115.314 77.5508 113 77.5508C110.686 77.5508 108.195 75.793 105.266 73.4492C102.336 71.1055 98.9375 68.1758 94.25 68.1758ZM16.8037 68.4102C12.9482 69.084 9.14844 71.2227 5.87305 73.2441C5.83789 73.2734 5.80859 73.2734 5.77344 73.3027V79.6016C6.63477 79.0156 7.5957 78.4004 8.63574 77.7559C11.1963 76.1738 14.2373 74.709 16.625 73.9473C16.6543 72.2188 16.707 70.373 16.8037 68.4102ZM94.25 91.6133C89.5625 91.6133 86.1641 94.543 83.2344 96.8867C80.3047 99.2305 77.8145 100.988 75.5 100.988C73.1855 100.988 70.6953 99.2305 67.7656 96.8867C65.3047 94.8945 62.4922 92.5215 58.8594 91.8184C58.7422 93.5762 58.6543 95.3633 58.5371 97.209C60.3535 97.7949 62.2871 99.2305 64.4844 100.988C67.4141 103.332 70.8125 106.262 75.5 106.262C80.1875 106.262 83.5859 103.332 86.5156 100.988C89.4453 98.6445 91.9355 96.8867 94.25 96.8867C96.5645 96.8867 99.0547 98.6445 101.984 100.988C104.914 103.332 108.312 106.262 113 106.262C117.688 106.262 121.086 103.332 124.016 100.988C126.945 98.6445 129.436 96.8867 131.75 96.8867C134.064 96.8867 138.723 98.9375 142.355 101.193C143.41 101.838 144.377 102.453 145.227 103.039V96.7402C145.197 96.7109 145.168 96.7109 145.139 96.6816C141.154 94.25 136.438 91.6133 131.75 91.6133C127.062 91.6133 123.664 94.543 120.734 96.8867C117.805 99.2305 115.314 100.988 113 100.988C110.686 100.988 108.195 99.2305 105.266 96.8867C102.336 94.543 98.9375 91.6133 94.25 91.6133ZM17.1201 91.7891C13.1592 92.4336 9.24512 94.6309 5.88477 96.6816C5.84668 96.7109 5.81152 96.7402 5.77344 96.7402V103.039C6.6377 102.453 7.59863 101.838 8.64453 101.193C11.498 99.4355 14.9404 97.7949 17.4189 97.1797C17.3105 95.3633 17.2109 93.5469 17.1201 91.7891ZM6.65234 115.637V143.176H8.91992C10.3086 142.033 13.5225 139.514 17.4277 136.906C18.4268 136.232 19.4668 135.559 20.5361 134.885C19.9854 129.816 19.3467 123.078 18.7373 115.637H6.65234ZM57.1602 115.637C56.6035 122.404 56.0176 128.498 55.5195 133.361C57.6289 134.182 59.6797 135.031 61.6426 135.91C68.9961 139.133 74.6797 142.355 76.1152 143.176H144.934V115.637H57.1602ZM36.5059 134.328C36.0957 134.328 35.7148 134.357 35.334 134.387C31.6133 134.709 25.3291 137.961 20.3574 141.271C17.8672 142.941 15.6699 144.582 14.0938 145.812H69.9336C67.2969 144.406 63.6055 142.561 59.5039 140.744C51.8574 137.375 42.5703 134.27 36.5059 134.328Z" fill="white"/>
</svg>
