<svg width="20" height="20" viewBox="0 0 20 20" fill="none" xmlns="http://www.w3.org/2000/svg">
<path d="M18.75 0.234375H0.78125C0.349121 0.234375 0 0.583496 0 1.01562V18.9844C0 19.4165 0.349121 19.7656 0.78125 19.7656H18.75C19.1821 19.7656 19.5312 19.4165 19.5312 18.9844V1.01562C19.5312 0.583496 19.1821 0.234375 18.75 0.234375ZM17.9688 18.2031H13.4741V12.2021H16.0132L16.394 9.25537H13.4741V7.37305C13.4741 6.51855 13.7109 5.9375 14.9341 5.9375H16.4941V3.30078C16.2231 3.26416 15.2979 3.18359 14.2188 3.18359C11.9678 3.18359 10.4272 4.55811 10.4272 7.08008V9.25293H7.8833V12.1997H10.4297V18.2031H1.5625V1.79688H17.9688V18.2031Z" fill="white"/>
</svg>
